<svg version="1.1" xmlns="http://www.w3.org/2000/svg" xmlns:xlink="http://www.w3.org/1999/xlink" x="0px" y="0px" viewBox="0 0 1000 1000" enable-background="new 0 0 1000 1000" xml:space="preserve">
<g><g fill="#fff" transform="translate(0.000000,511.000000) scale(0.100000,-0.100000)"><path d="M349.4,3559.6c-45.3-10.7-117.3-58.6-159.9-103.9l-80-82.6l-8-1777.6c-5.3-1295.2,2.7-1796.3,24-1852.2c16-40,66.6-103.9,109.3-138.6l80-66.6h2102.7c1460.5,0,2102.7,8,2102.7,29.3c0,13.3-10.7,77.3-24,138.6c-16,61.3-32,143.9-42.6,186.6l-13.3,72H2481.5H522.7v1599.1v1599H5000h4477.3v-1599V-35.6h-466.4h-466.4l-13.3-72c-8-42.6-32-138.6-50.6-213.2L8445.9-462h621h618.3l80,66.6c42.7,34.6,93.3,98.6,109.3,138.6c21.3,56,29.3,557,24,1852.2l-8,1777.6l-77.3,80c-45.3,45.3-122.6,95.9-173.2,109.3C9517.3,3596.9,464,3594.2,349.4,3559.6z"/><path d="M6273.9,2067.1c-647.6-74.6-1204.6-463.7-1495.1-1050c-543.7-1095.4,61.3-2401.2,1249.9-2705.1c399.8-103.9,876.8-58.6,1273.9,117.3c85.3,37.3,159.9,69.3,162.6,69.3c5.3,0,370.4-418.4,815.5-932.8c445.1-511.7,815.5-932.8,823.5-932.8s82.6,58.6,165.2,130.6l154.6,130.6l-799.5,922.1c-439.7,506.4-799.5,930.1-799.5,940.8c0,10.7,61.3,93.3,133.3,181.2c162.6,194.6,295.8,442.4,375.8,706.2c80,258.5,88,743.6,13.3,1012.7C8094.1,1574.1,7212,2176.4,6273.9,2067.1z M6772.3,1630.1c306.5-58.6,525-175.9,762.2-413.1c327.8-325.1,469.1-687.6,442.4-1132.7c-40-647.6-485-1199.3-1098-1359.2c-202.5-50.6-570.3-50.6-772.9,0C5490.4-1112.3,5048-565.9,5008,84.3c-26.7,445.1,114.6,807.5,442.4,1132.7c231.9,231.9,455.7,354.4,743.6,413.1C6433.8,1678,6529.8,1678,6772.3,1630.1z"/></g></g>
</svg>